<svg width="115" height="36" viewBox="0 0 115 36" fill="none" xmlns="http://www.w3.org/2000/svg">
<path d="M19.632 1.544V35H12.432V1.544H19.632ZM31.392 1.352V3.368H0.672V1.352H31.392ZM31.392 3.224V8.888L30.912 8.84V8.312C30.912 6.808 30.464 5.624 29.568 4.76C28.704 3.864 27.52 3.4 26.016 3.368V3.224H31.392ZM31.392 0.487998V1.88L25.536 1.352C26.24 1.352 26.976 1.304 27.744 1.208C28.544 1.112 29.28 0.999999 29.952 0.871999C30.624 0.743999 31.104 0.615998 31.392 0.487998ZM12.576 31.496V35H8.736V34.52C8.736 34.52 8.832 34.52 9.024 34.52C9.248 34.52 9.36 34.52 9.36 34.52C10.192 34.52 10.896 34.232 11.472 33.656C12.08 33.048 12.4 32.328 12.432 31.496H12.576ZM19.488 31.496H19.632C19.664 32.328 19.968 33.048 20.544 33.656C21.152 34.232 21.872 34.52 22.704 34.52C22.704 34.52 22.8 34.52 22.992 34.52C23.216 34.52 23.328 34.52 23.328 34.52V35H19.488V31.496ZM6 3.224V3.368C4.528 3.4 3.344 3.864 2.448 4.76C1.584 5.624 1.152 6.808 1.152 8.312V8.84L0.672 8.888V3.224H6ZM0.672 0.487998C0.992 0.615998 1.472 0.743999 2.112 0.871999C2.784 0.999999 3.52 1.112 4.32 1.208C5.12 1.304 5.856 1.352 6.528 1.352L0.672 1.88V0.487998ZM43.9196 6.2V35H37.0076V6.2H43.9196ZM37.1516 31.976V35H33.6476V34.52C33.6476 34.52 33.7436 34.52 33.9356 34.52C34.1276 34.52 34.2396 34.52 34.2716 34.52C35.0076 34.52 35.6476 34.28 36.1916 33.8C36.7356 33.288 37.0076 32.68 37.0076 31.976H37.1516ZM43.8236 31.976H43.9196C43.9516 32.68 44.2236 33.288 44.7356 33.8C45.2796 34.28 45.9356 34.52 46.7036 34.52C46.7036 34.52 46.7836 34.52 46.9436 34.52C47.1356 34.52 47.2476 34.52 47.2796 34.52V35H43.8236V31.976ZM43.8236 9.224V6.2H47.2796L47.2316 6.68C47.2316 6.68 47.1516 6.68 46.9916 6.68C46.8316 6.68 46.7356 6.68 46.7036 6.68C45.9356 6.68 45.2796 6.92 44.7356 7.4C44.2236 7.88 43.9516 8.488 43.9196 9.224H43.8236ZM37.1516 9.224H37.0076C37.0076 8.488 36.7356 7.88 36.1916 7.4C35.6476 6.92 34.9916 6.68 34.2236 6.68C34.2236 6.68 34.1276 6.68 33.9356 6.68C33.7436 6.68 33.6476 6.68 33.6476 6.68V6.2H37.1516V9.224ZM55.2814 6.2H63.2494C64.4974 6.2 65.7614 6.296 67.0414 6.488C68.3214 6.68 69.4894 7.032 70.5454 7.544C71.6014 8.056 72.4494 8.776 73.0894 9.704C73.7294 10.632 74.0494 11.848 74.0494 13.352C74.0494 14.568 73.7934 15.608 73.2814 16.472C72.7694 17.336 72.1134 18.008 71.3134 18.488C70.5134 18.968 69.6654 19.24 68.7694 19.304C70.1774 19.4 71.4414 19.768 72.5614 20.408C73.6814 21.048 74.5774 21.912 75.2494 23C75.9534 24.056 76.3054 25.32 76.3054 26.792C76.3054 28.296 75.9854 29.576 75.3454 30.632C74.7054 31.656 73.8254 32.504 72.7054 33.176C71.5854 33.816 70.2894 34.28 68.8174 34.568C67.3774 34.856 65.8574 35 64.2574 35H59.9374C59.9374 35 59.9374 34.84 59.9374 34.52C59.9374 34.2 59.9374 33.88 59.9374 33.56C59.9374 33.24 59.9374 33.08 59.9374 33.08H62.2414C63.3934 33.08 64.4334 32.872 65.3614 32.456C66.3214 32.008 67.0894 31.288 67.6654 30.296C68.2414 29.304 68.5294 27.992 68.5294 26.36C68.5294 25.24 68.3534 24.264 68.0014 23.432C67.6814 22.568 67.2174 21.88 66.6094 21.368C66.0014 20.824 65.2814 20.424 64.4494 20.168C63.6174 19.912 62.7054 19.784 61.7134 19.784V19.352C62.4174 19.352 63.0894 19.256 63.7294 19.064C64.3694 18.84 64.9134 18.52 65.3614 18.104C65.8414 17.656 66.2094 17.08 66.4654 16.376C66.7534 15.672 66.8974 14.824 66.8974 13.832C66.8974 11.688 66.4014 10.2 65.4094 9.368C64.4174 8.504 63.1694 8.072 61.6654 8.072H55.7134C55.7134 8.04 55.6654 7.88 55.5694 7.592C55.5054 7.272 55.4414 6.968 55.3774 6.68C55.3134 6.36 55.2814 6.2 55.2814 6.2ZM60.2734 6.2V35H53.4574V6.2H60.2734ZM53.6014 31.976V35H50.3374V34.52C50.3694 34.52 50.4494 34.52 50.5774 34.52C50.7374 34.52 50.8334 34.52 50.8654 34.52C51.6334 34.52 52.2574 34.28 52.7374 33.8C53.2494 33.288 53.4894 32.68 53.4574 31.976H53.6014ZM53.6014 9.224H53.4574C53.4894 8.456 53.2494 7.848 52.7374 7.4C52.2574 6.92 51.6334 6.68 50.8654 6.68C50.8334 6.68 50.7374 6.68 50.5774 6.68C50.4494 6.68 50.3694 6.68 50.3374 6.68V6.2H53.6014V9.224ZM96.999 5.576C99.559 5.576 101.879 5.928 103.959 6.632C106.039 7.304 107.831 8.296 109.335 9.608C110.839 10.92 111.991 12.504 112.791 14.36C113.623 16.216 114.039 18.312 114.039 20.648C114.039 22.952 113.623 25.032 112.791 26.888C111.991 28.712 110.839 30.28 109.335 31.592C107.831 32.904 106.039 33.912 103.959 34.616C101.879 35.288 99.559 35.624 96.999 35.624C94.471 35.624 92.167 35.288 90.087 34.616C88.007 33.912 86.215 32.904 84.711 31.592C83.207 30.28 82.055 28.712 81.255 26.888C80.455 25.032 80.055 22.952 80.055 20.648C80.055 18.312 80.455 16.216 81.255 14.36C82.055 12.504 83.207 10.92 84.711 9.608C86.215 8.296 88.007 7.304 90.087 6.632C92.167 5.928 94.471 5.576 96.999 5.576ZM96.999 33.752C98.951 33.752 100.647 33.224 102.087 32.168C103.559 31.08 104.679 29.56 105.447 27.608C106.247 25.656 106.647 23.336 106.647 20.648C106.647 17.928 106.247 15.592 105.447 13.64C104.679 11.656 103.559 10.136 102.087 9.08C100.647 7.992 98.951 7.448 96.999 7.448C95.079 7.448 93.399 7.992 91.959 9.08C90.519 10.136 89.399 11.656 88.599 13.64C87.799 15.592 87.399 17.928 87.399 20.648C87.399 23.336 87.799 25.656 88.599 27.608C89.399 29.56 90.519 31.08 91.959 32.168C93.399 33.224 95.079 33.752 96.999 33.752Z" fill="white"/>
</svg>
