<svg width="1200" height="628" viewBox="0 0 1200 628" fill="none" xmlns="http://www.w3.org/2000/svg">
<rect width="1200" height="628" fill="black"/>
<path d="M498.352 275.784V365H479.152V275.784H498.352ZM529.712 275.272V280.648H447.792V275.272H529.712ZM529.712 280.264V295.368L528.432 295.24V293.832C528.432 289.821 527.237 286.664 524.848 284.36C522.544 281.971 519.387 280.733 515.376 280.648V280.264H529.712ZM529.712 272.968V276.68L514.096 275.272C515.973 275.272 517.936 275.144 519.984 274.888C522.117 274.632 524.08 274.333 525.872 273.992C527.664 273.651 528.944 273.309 529.712 272.968ZM479.536 355.656V365H469.296V363.72C469.296 363.72 469.552 363.72 470.064 363.72C470.661 363.72 470.96 363.72 470.96 363.72C473.179 363.72 475.056 362.952 476.592 361.416C478.213 359.795 479.067 357.875 479.152 355.656H479.536ZM497.968 355.656H498.352C498.437 357.875 499.248 359.795 500.784 361.416C502.405 362.952 504.325 363.72 506.544 363.72C506.544 363.72 506.8 363.72 507.312 363.72C507.909 363.72 508.208 363.72 508.208 363.72V365H497.968V355.656ZM462 280.264V280.648C458.075 280.733 454.917 281.971 452.528 284.36C450.224 286.664 449.072 289.821 449.072 293.832V295.24L447.792 295.368V280.264H462ZM447.792 272.968C448.645 273.309 449.925 273.651 451.632 273.992C453.424 274.333 455.387 274.632 457.52 274.888C459.653 275.144 461.616 275.272 463.408 275.272L447.792 276.68V272.968ZM563.119 288.2V365H544.687V288.2H563.119ZM545.071 356.936V365H535.727V363.72C535.727 363.72 535.983 363.72 536.495 363.72C537.007 363.72 537.306 363.72 537.391 363.72C539.354 363.72 541.06 363.08 542.511 361.8C543.962 360.435 544.687 358.813 544.687 356.936H545.071ZM562.863 356.936H563.119C563.204 358.813 563.93 360.435 565.295 361.8C566.746 363.08 568.495 363.72 570.543 363.72C570.543 363.72 570.756 363.72 571.183 363.72C571.695 363.72 571.994 363.72 572.079 363.72V365H562.863V356.936ZM562.863 296.264V288.2H572.079L571.951 289.48C571.951 289.48 571.738 289.48 571.311 289.48C570.884 289.48 570.628 289.48 570.543 289.48C568.495 289.48 566.746 290.12 565.295 291.4C563.93 292.68 563.204 294.301 563.119 296.264H562.863ZM545.071 296.264H544.687C544.687 294.301 543.962 292.68 542.511 291.4C541.06 290.12 539.311 289.48 537.263 289.48C537.263 289.48 537.007 289.48 536.495 289.48C535.983 289.48 535.727 289.48 535.727 289.48V288.2H545.071V296.264ZM593.417 288.2H614.665C617.993 288.2 621.364 288.456 624.777 288.968C628.19 289.48 631.305 290.419 634.121 291.784C636.937 293.149 639.198 295.069 640.905 297.544C642.612 300.019 643.465 303.261 643.465 307.272C643.465 310.515 642.782 313.288 641.417 315.592C640.052 317.896 638.302 319.688 636.169 320.968C634.036 322.248 631.774 322.973 629.385 323.144C633.14 323.4 636.51 324.381 639.497 326.088C642.484 327.795 644.873 330.099 646.665 333C648.542 335.816 649.481 339.187 649.481 343.112C649.481 347.123 648.628 350.536 646.921 353.352C645.214 356.083 642.868 358.344 639.881 360.136C636.894 361.843 633.438 363.08 629.513 363.848C625.673 364.616 621.62 365 617.353 365H605.833C605.833 365 605.833 364.573 605.833 363.72C605.833 362.867 605.833 362.013 605.833 361.16C605.833 360.307 605.833 359.88 605.833 359.88H611.977C615.049 359.88 617.822 359.325 620.297 358.216C622.857 357.021 624.905 355.101 626.441 352.456C627.977 349.811 628.745 346.312 628.745 341.96C628.745 338.973 628.276 336.371 627.337 334.152C626.484 331.848 625.246 330.013 623.625 328.648C622.004 327.197 620.084 326.131 617.865 325.448C615.646 324.765 613.214 324.424 610.569 324.424V323.272C612.446 323.272 614.238 323.016 615.945 322.504C617.652 321.907 619.102 321.053 620.297 319.944C621.577 318.749 622.558 317.213 623.241 315.336C624.009 313.459 624.393 311.197 624.393 308.552C624.393 302.835 623.07 298.867 620.425 296.648C617.78 294.344 614.452 293.192 610.441 293.192H594.569C594.569 293.107 594.441 292.68 594.185 291.912C594.014 291.059 593.844 290.248 593.673 289.48C593.502 288.627 593.417 288.2 593.417 288.2ZM606.729 288.2V365H588.553V288.2H606.729ZM588.937 356.936V365H580.233V363.72C580.318 363.72 580.532 363.72 580.873 363.72C581.3 363.72 581.556 363.72 581.641 363.72C583.689 363.72 585.353 363.08 586.633 361.8C587.998 360.435 588.638 358.813 588.553 356.936H588.937ZM588.937 296.264H588.553C588.638 294.216 587.998 292.595 586.633 291.4C585.353 290.12 583.689 289.48 581.641 289.48C581.556 289.48 581.3 289.48 580.873 289.48C580.532 289.48 580.318 289.48 580.233 289.48V288.2H588.937V296.264ZM704.664 286.536C711.491 286.536 717.677 287.475 723.224 289.352C728.771 291.144 733.549 293.789 737.56 297.288C741.571 300.787 744.643 305.011 746.776 309.96C748.995 314.909 750.104 320.499 750.104 326.728C750.104 332.872 748.995 338.419 746.776 343.368C744.643 348.232 741.571 352.413 737.56 355.912C733.549 359.411 728.771 362.099 723.224 363.976C717.677 365.768 711.491 366.664 704.664 366.664C697.923 366.664 691.779 365.768 686.232 363.976C680.685 362.099 675.907 359.411 671.896 355.912C667.885 352.413 664.813 348.232 662.68 343.368C660.547 338.419 659.48 332.872 659.48 326.728C659.48 320.499 660.547 314.909 662.68 309.96C664.813 305.011 667.885 300.787 671.896 297.288C675.907 293.789 680.685 291.144 686.232 289.352C691.779 287.475 697.923 286.536 704.664 286.536ZM704.664 361.672C709.869 361.672 714.392 360.264 718.232 357.448C722.157 354.547 725.144 350.493 727.192 345.288C729.325 340.083 730.392 333.896 730.392 326.728C730.392 319.475 729.325 313.245 727.192 308.04C725.144 302.749 722.157 298.696 718.232 295.88C714.392 292.979 709.869 291.528 704.664 291.528C699.544 291.528 695.064 292.979 691.224 295.88C687.384 298.696 684.397 302.749 682.264 308.04C680.131 313.245 679.064 319.475 679.064 326.728C679.064 333.896 680.131 340.083 682.264 345.288C684.397 350.493 687.384 354.547 691.224 357.448C695.064 360.264 699.544 361.672 704.664 361.672Z" fill="white"/>
</svg>
